<svg width="16" height="16" viewBox="0 0 16 16" fill="none" xmlns="http://www.w3.org/2000/svg">
<path fill-rule="evenodd" clip-rule="evenodd" d="M8.75 3.33301C8.75 2.91879 8.41421 2.58301 8 2.58301C7.58579 2.58301 7.25 2.91879 7.25 3.33301V7.25H3.3335C2.91928 7.25 2.5835 7.58579 2.5835 8C2.5835 8.41421 2.91928 8.75 3.3335 8.75H7.25V12.6663C7.25 13.0806 7.58579 13.4163 8 13.4163C8.41421 13.4163 8.75 13.0806 8.75 12.6663V8.75H12.6668C13.081 8.75 13.4168 8.41421 13.4168 8C13.4168 7.58579 13.081 7.25 12.6668 7.25H8.75V3.33301Z" fill="#BEC2C5"/>
</svg>
